<?xml version="1.0" standalone="no"?>
<!DOCTYPE svg PUBLIC "-//W3C//DTD SVG 20010904//EN"
 "http://www.w3.org/TR/2001/REC-SVG-20010904/DTD/svg10.dtd">
<svg version="1.0" xmlns="http://www.w3.org/2000/svg"
 width="619.000000pt" height="403.000000pt" viewBox="0 0 619.000000 403.000000"
 preserveAspectRatio="xMidYMid meet">
<metadata>
Created by potrace 1.16, written by Peter Selinger 2001-2019
</metadata>
<g transform="translate(0.000000,403.000000) scale(0.100000,-0.100000)"
fill="#000000" stroke="none">
<path d="M2930 4024 c-245 -14 -574 -114 -810 -245 -68 -38 -193 -115 -208
-129 -10 -8 -38 -31 -62 -50 -136 -106 -265 -237 -368 -375 -28 -38 -55 -74
-60 -80 -22 -29 -114 -192 -154 -275 -45 -92 -111 -273 -130 -355 -79 -346
-79 -654 0 -1000 19 -82 85 -263 130 -355 40 -83 132 -246 154 -275 5 -5 32
-41 60 -80 103 -138 232 -269 368 -375 24 -19 52 -42 62 -50 15 -14 140 -91
208 -129 135 -75 342 -157 480 -189 213 -50 264 -56 495 -56 204 1 268 6 403
35 208 45 404 117 572 210 68 38 193 115 208 129 10 8 38 31 62 50 136 106
265 237 368 375 28 39 55 75 60 80 22 29 114 192 154 275 45 92 111 273 130
355 43 186 58 319 58 500 0 312 -62 597 -188 855 -40 83 -132 246 -154 275 -5
6 -32 42 -60 80 -103 138 -232 269 -368 375 -24 19 -52 42 -62 50 -15 14 -140
91 -208 129 -96 53 -212 104 -315 139 -143 47 -173 55 -365 92 -55 10 -357 19
-460 14z m355 -487 c239 -138 470 -246 680 -315 145 -48 164 -53 344 -93 66
-14 133 -74 151 -134 9 -31 7 -175 -8 -660 l-20 -620 -27 -80 c-174 -510 -595
-935 -1169 -1180 -65 -28 -103 -38 -141 -38 -89 0 -335 115 -543 254 -368 247
-638 586 -767 964 l-27 80 -20 620 c-15 485 -17 629 -8 660 18 60 85 120 151
134 180 40 199 45 344 93 210 70 443 178 681 316 176 102 201 102 379 -1z"/>
<path d="M3035 3373 c-336 -200 -684 -347 -989 -418 l-119 -28 6 -201 c4 -110
12 -372 18 -581 12 -435 12 -434 114 -640 74 -148 167 -276 300 -410 170 -172
323 -280 567 -400 l155 -76 54 21 c147 58 360 182 514 298 93 70 273 258 347
363 77 106 165 278 202 389 23 71 25 94 35 455 6 209 14 471 18 581 l6 201
-119 28 c-287 67 -664 223 -946 393 -21 12 -53 31 -70 41 l-33 19 -60 -35z
m186 -270 c202 -125 461 -232 682 -283 106 -24 152 -56 163 -114 6 -36 -13
-814 -22 -886 -11 -84 -84 -250 -157 -360 -150 -223 -356 -394 -634 -528 -136
-65 -180 -65 -316 0 -278 134 -484 305 -634 528 -73 110 -146 276 -157 360 -9
72 -28 850 -22 886 11 58 57 90 163 114 214 49 460 150 664 271 99 59 102 60
154 56 36 -3 68 -15 116 -44z"/>
<path d="M2818 2608 c-6 -13 -12 -46 -12 -74 0 -41 5 -59 28 -88 15 -21 39
-42 53 -49 18 -8 23 -16 18 -31 -3 -12 -9 -38 -12 -59 -4 -30 -18 -50 -55 -85
-28 -26 -53 -48 -57 -50 -3 -1 -28 17 -54 40 -41 38 -49 52 -67 120 -11 43
-20 87 -20 97 0 29 -32 44 -56 27 -16 -12 -17 -19 -6 -79 27 -144 58 -197 151
-257 22 -15 23 -18 11 -52 -11 -28 -21 -38 -51 -47 -42 -13 -91 -63 -115 -119
-24 -55 -25 -205 -1 -229 14 -14 21 -15 35 -7 14 9 16 23 14 68 -5 83 14 150
55 194 33 34 36 36 44 17 4 -11 8 -31 8 -45 1 -13 8 -43 17 -66 16 -42 16 -44
-12 -100 -23 -46 -28 -70 -27 -123 1 -83 40 -181 72 -181 34 0 41 28 20 78
-22 50 -26 161 -7 191 11 17 15 16 64 -24 141 -115 337 -115 478 0 51 41 53
42 65 22 20 -31 16 -135 -7 -188 -22 -51 -15 -79 19 -79 33 0 71 99 72 186 0
59 -4 79 -28 122 -28 51 -28 52 -11 95 9 23 16 54 17 67 0 14 4 34 8 45 8 19
11 17 44 -17 41 -44 60 -111 55 -194 -2 -45 0 -59 14 -68 14 -8 21 -7 35 7 24
24 23 174 -1 229 -24 56 -73 106 -115 119 -30 9 -40 19 -51 47 -12 34 -11 37
11 52 93 60 124 113 151 257 11 60 10 67 -6 79 -24 17 -56 2 -56 -27 0 -10 -9
-54 -20 -97 -18 -68 -26 -82 -67 -120 -26 -23 -51 -41 -54 -40 -4 2 -30 25
-58 51 -33 31 -51 56 -51 71 0 13 -5 38 -12 56 -9 28 -9 35 3 38 8 3 30 22 51
43 43 45 55 96 36 154 -10 32 -18 41 -41 43 -34 4 -43 -15 -27 -62 15 -46 7
-70 -36 -102 -32 -25 -36 -25 -52 -11 -27 25 -87 47 -127 47 -40 0 -100 -22
-127 -47 -16 -14 -20 -14 -52 11 -43 32 -51 56 -36 102 7 19 9 41 6 49 -9 23
-54 18 -68 -7z"/>
</g>
</svg>
